<?xml version="1.0" encoding="UTF-8" standalone="no"?>
<svg width="17px" height="17px" viewBox="0 0 17 17" version="1.1" xmlns="http://www.w3.org/2000/svg" xmlns:xlink="http://www.w3.org/1999/xlink">
    <!-- Generator: Sketch 3.8.3 (29802) - http://www.bohemiancoding.com/sketch -->
    <title>calendar</title>
    <desc>Created with Sketch.</desc>
    <defs></defs>
    <g id="seats-available" stroke="none" stroke-width="1" fill="none" fill-rule="evenodd">
        <g id="Group-3-Copy-3" transform="translate(-147.000000, -44.000000)">
            <g id="Group-5" transform="translate(140.000000, 37.000000)">
                <g id="calendar" transform="translate(7.000000, 7.000000)">
                    <g id="Capa_1">
                        <g id="_x31_5_38_">
                            <g id="Group">
                                <path d="M4.15378351,3.96780713 L4.39697113,3.96780713 C4.76655464,3.96780713 5.06614021,3.66309015 5.06614021,3.28741509 L5.06614021,1.4098239 L5.06614021,0.707513627 C5.06614021,0.331838574 4.76655464,0.0271572327 4.39697113,0.0271572327 L4.15378351,0.0271572327 C3.78423505,0.0271572327 3.48464948,0.331838574 3.48464948,0.707513627 L3.48464948,1.40985954 L3.48464948,3.28741509 C3.48464948,3.66309015 3.78423505,3.96780713 4.15378351,3.96780713 L4.15378351,3.96780713 Z" id="Shape"></path>
                                <path d="M12.7367856,3.95094969 L12.9799732,3.95094969 C13.3495216,3.95094969 13.6491072,3.64626834 13.6491072,3.27055765 L13.6491072,1.23162683 L13.6491072,0.690620545 C13.6491072,0.314981132 13.3495216,0.0102997904 12.9799732,0.0102997904 L12.7367856,0.0102997904 C12.367167,0.0102997904 12.0675814,0.314981132 12.0675814,0.690620545 L12.0675814,1.23162683 L12.0675814,3.27052201 C12.0676515,3.64626834 12.3672371,3.95094969 12.7367856,3.95094969 L12.7367856,3.95094969 Z" id="Shape"></path>
                                <path d="M15.9104577,1.4098239 L14.1930722,1.4098239 L14.1930722,3.44871908 C14.1930722,4.12886164 13.6488969,4.5040021 12.9800433,4.5040021 L12.7368557,4.5040021 C12.067932,4.5040021 11.5237567,3.95066457 11.5237567,3.27052201 L11.5237567,1.4098239 L5.61010515,1.4098239 L5.61010515,3.28737945 C5.61010515,3.96752201 5.0659299,4.52085954 4.39700619,4.52085954 L4.15381856,4.52085954 C3.4849299,4.52085954 2.94075464,3.96752201 2.94075464,3.28737945 L2.94075464,1.4098239 L1.08785979,1.4098239 C0.48802268,1.4098239 0,1.90603145 0,2.51596436 L0,15.8818134 C0,16.4917463 0.48802268,16.9879539 1.08785979,16.9879539 L15.9104577,16.9879539 C16.5102948,16.9879539 16.9982825,16.4917463 16.9982825,15.8818134 L16.9982825,2.51596436 C16.9983526,1.90606709 16.5102948,1.4098239 15.9104577,1.4098239 L15.9104577,1.4098239 Z M15.9104577,15.8818134 L1.08789485,15.8818134 L1.08785979,5.78826834 L15.910668,5.78826834 L15.9112289,15.8817778 C15.9111588,15.8817778 15.9109485,15.8818134 15.9104577,15.8818134 L15.9104577,15.8818134 Z" id="Shape"></path>
                                <path d="M9.06075464,9.1739413 L11.0140722,9.1739413 C11.091501,9.1739413 11.1542784,9.11011111 11.1542784,9.03138365 L11.1542784,7.31160377 C11.1542784,7.23287631 11.091501,7.16904612 11.0140722,7.16904612 L9.06075464,7.16904612 C8.98332577,7.16904612 8.92054845,7.23287631 8.92054845,7.31160377 L8.92054845,9.03138365 C8.92054845,9.11011111 8.98332577,9.1739413 9.06075464,9.1739413 L9.06075464,9.1739413 Z" id="Shape"></path>
                                <path d="M12.2485175,9.1739413 L14.2018351,9.1739413 C14.2792639,9.1739413 14.3420412,9.11011111 14.3420412,9.03138365 L14.3420412,7.31160377 C14.3420412,7.23287631 14.2792639,7.16904612 14.2018351,7.16904612 L12.2485175,7.16904612 C12.1710887,7.16904612 12.1083113,7.23287631 12.1083113,7.31160377 L12.1083113,9.03138365 C12.1083113,9.11011111 12.1710887,9.1739413 12.2485175,9.1739413 L12.2485175,9.1739413 Z" id="Shape"></path>
                                <path d="M2.68533402,11.9894549 L4.63861649,11.9894549 C4.71604536,11.9894549 4.77882268,11.9256247 4.77882268,11.8468973 L4.77882268,10.1270818 C4.77882268,10.0483543 4.71604536,9.98452411 4.63861649,9.98452411 L2.68533402,9.98452411 C2.60790515,9.98452411 2.54512784,10.0483543 2.54512784,10.1270818 L2.54512784,11.8468973 C2.54512784,11.9256247 2.60790515,11.9894549 2.68533402,11.9894549 L2.68533402,11.9894549 Z" id="Shape"></path>
                                <path d="M5.87306186,11.9894549 L7.82634433,11.9894549 C7.9037732,11.9894549 7.96655052,11.9256247 7.96655052,11.8468973 L7.96655052,10.1270818 C7.96655052,10.0483543 7.9037732,9.98452411 7.82634433,9.98452411 L5.87306186,9.98452411 C5.79563299,9.98452411 5.73285567,10.0483543 5.73285567,10.1270818 L5.73285567,11.8468973 C5.73285567,11.9256247 5.79563299,11.9894549 5.87306186,11.9894549 L5.87306186,11.9894549 Z" id="Shape"></path>
                                <path d="M9.06078969,11.9894549 L11.0140722,11.9894549 C11.091501,11.9894549 11.1542784,11.9256247 11.1542784,11.8468973 L11.1542784,10.1270818 C11.1542784,10.0483543 11.091501,9.98452411 11.0140722,9.98452411 L9.06078969,9.98452411 C8.98336082,9.98452411 8.92058351,10.0483543 8.92058351,10.1270818 L8.92058351,11.8468973 C8.92058351,11.9256247 8.98336082,11.9894549 9.06078969,11.9894549 L9.06078969,11.9894549 Z" id="Shape"></path>
                                <path d="M12.2485175,11.9894549 L14.2018351,11.9894549 C14.2792639,11.9894549 14.3420412,11.9256247 14.3420412,11.8468973 L14.3420412,10.1270818 C14.3420412,10.0483543 14.2792639,9.98452411 14.2018351,9.98452411 L12.2485175,9.98452411 C12.1710887,9.98452411 12.1083113,10.0483543 12.1083113,10.1270818 L12.1083113,11.8468973 C12.1083113,11.9256247 12.1710887,11.9894549 12.2485175,11.9894549 L12.2485175,11.9894549 Z" id="Shape"></path>
                                <path d="M4.63861649,12.8000377 L2.68536907,12.8000377 C2.60794021,12.8000377 2.54516289,12.8638679 2.54516289,12.9425954 L2.54516289,14.6624109 C2.54516289,14.7411384 2.60794021,14.8049686 2.68536907,14.8049686 L4.63865155,14.8049686 C4.71608041,14.8049686 4.77885773,14.7411384 4.77885773,14.6624109 L4.77885773,12.9425954 C4.77882268,12.8638679 4.71604536,12.8000377 4.63861649,12.8000377 L4.63861649,12.8000377 Z" id="Shape"></path>
                                <path d="M7.82637938,12.8000377 L5.87309691,12.8000377 C5.79566804,12.8000377 5.73289072,12.8638679 5.73289072,12.9425954 L5.73289072,14.6624109 C5.73289072,14.7411384 5.79566804,14.8049686 5.87309691,14.8049686 L7.82637938,14.8049686 C7.90380825,14.8049686 7.96658557,14.7411384 7.96658557,14.6624109 L7.96658557,12.9425954 C7.96658557,12.8638679 7.90380825,12.8000377 7.82637938,12.8000377 L7.82637938,12.8000377 Z" id="Shape"></path>
                                <path d="M11.0141423,12.8000377 L9.06082474,12.8000377 C8.98339588,12.8000377 8.92061856,12.8638679 8.92061856,12.9425954 L8.92061856,14.6624109 C8.92061856,14.7411384 8.98339588,14.8049686 9.06082474,14.8049686 L11.0141423,14.8049686 C11.0915711,14.8049686 11.1543485,14.7411384 11.1543485,14.6624109 L11.1543485,12.9425954 C11.1543485,12.8638679 11.0915711,12.8000377 11.0141423,12.8000377 L11.0141423,12.8000377 Z" id="Shape"></path>
                                <path d="M14.2018351,12.8000377 L12.2485175,12.8000377 C12.1710887,12.8000377 12.1083113,12.8638679 12.1083113,12.9425954 L12.1083113,14.6624109 C12.1083113,14.7411384 12.1710887,14.8049686 12.2485175,14.8049686 L14.2018351,14.8049686 C14.2792639,14.8049686 14.3420412,14.7411384 14.3420412,14.6624109 L14.3420412,12.9425954 C14.3420412,12.8638679 14.2792639,12.8000377 14.2018351,12.8000377 L14.2018351,12.8000377 Z" id="Shape"></path>
                            </g>
                        </g>
                    </g>
                </g>
            </g>
        </g>
    </g>
</svg>