<?xml version="1.0" encoding="UTF-8" standalone="no"?>
<svg width="49px" height="65px" viewBox="0 0 49 65" version="1.1" xmlns="http://www.w3.org/2000/svg" xmlns:xlink="http://www.w3.org/1999/xlink">
    <!-- Generator: Sketch 3.7.2 (28276) - http://www.bohemiancoding.com/sketch -->
    <title>chair-with-wheels</title>
    <desc>Created with Sketch.</desc>
    <defs></defs>
    <g id="seats-available" stroke="none" stroke-width="1" fill="none" fill-rule="evenodd">
        <g id="1B.-Home-not-available" transform="translate(-42.000000, -394.000000)" fill="#CECECE">
            <g id="chair-with-wheels" transform="translate(42.000000, 394.500000)">
                <g id="Capa_1">
                    <g id="Group">
                        <path d="M11.0139986,33.7392781 C14.5101419,32.8968832 19.5450606,32.3873291 24.4991226,32.3873291 C29.3788747,32.3873291 34.3396185,32.8832951 37.8290124,33.7053079 L40.2857617,8.24798301 C40.6839711,3.81825902 37.2148251,0 32.8007755,0 L16.1637231,0 C11.7564229,0 8.29402617,3.79787686 8.6719876,8.21401274 L11.0139986,33.7392781 L11.0139986,33.7392781 Z" id="Shape"></path>
                        <path d="M34.7175799,57.729087 C34.7175799,59.6178344 36.2429242,61.1532229 38.1191653,61.1532229 C39.9954063,61.1532229 41.5208182,59.6177665 41.5208182,57.729087 C41.5208182,56.9477707 41.2643444,56.2343949 40.8256391,55.6569002 C39.9009835,54.0874055 38.0246749,52.7490446 35.3249504,51.7367304 C33.2394132,50.955414 30.7488499,50.4186837 28.0896887,50.1605096 L28.0896887,44.059448 L20.9016722,44.059448 L20.9016722,50.1605096 C18.2424435,50.4186837 15.7519477,50.955414 13.6664105,51.7367304 C10.6832149,52.8509554 8.70566667,54.3728238 7.90249862,56.1596603 C7.65952342,56.6284501 7.52453719,57.1652484 7.52453719,57.729155 C7.52453719,59.6179023 9.04988154,61.1532909 10.9261901,61.1532909 C12.8024986,61.1532909 14.327843,59.6178344 14.327843,57.729155 C14.327843,56.6149299 13.8013967,55.6297919 12.9847975,55.0046709 C13.4774972,54.7464968 14.0174421,54.5087049 14.6113815,54.2845011 C17.0006377,53.3876858 20.0040813,52.8509554 23.1897562,52.7354565 L23.1897562,57.3893843 C21.981697,57.9125265 21.1380331,59.1218684 21.1380331,60.5350318 C21.1380331,62.4237792 22.6633774,63.9592357 24.5396185,63.9592357 C26.4159945,63.9592357 27.9412713,62.4237113 27.9412713,60.5350318 C27.9412713,59.1286624 27.0976074,57.9193206 25.8894807,57.3893843 L25.8894807,52.7422505 C29.0482259,52.8645435 32.0246047,53.4012739 34.3868636,54.2912951 C34.9875523,54.5155669 35.5477452,54.766879 36.0404449,55.025121 C35.2372094,55.6433121 34.7175799,56.6284501 34.7175799,57.729087 L34.7175799,57.729087 Z" id="Shape"></path>
                        <path d="M45.3274298,38.0127389 L45.3274298,30.1248408 L41.331905,30.1112527 C41.331905,30.1112527 41.4600744,35.0845011 38.4431322,35.9677282 C36.4926488,35.4106157 33.819854,34.9757282 30.8839036,34.710828 C28.8321804,34.5273885 26.6521529,34.4254777 24.4990551,34.4254777 C22.3459573,34.4254777 20.1659972,34.5273885 18.1142066,34.710828 C15.1782562,34.9757282 12.5054614,35.4106157 10.554978,35.9677282 C7.78101102,35.0096985 7.64602479,30.0569002 7.64602479,30.0569002 L3.73817355,30.0569002 L3.73817355,38.0127389 C3.73817355,40.2276008 5.52674105,42.0280255 7.72701653,42.0280255 L15.3199917,42.0280255 L20.9016722,42.0280255 L28.0896887,42.0280255 L33.6713691,42.0280255 L41.3318375,42.0280255 C43.5388623,42.0280255 45.3274298,40.2276008 45.3274298,38.0127389 L45.3274298,38.0127389 Z" id="Shape"></path>
                        <path d="M1.72019697,28.433121 C1.76069284,28.433121 1.80118871,28.4399151 1.84168457,28.4399151 L8.28052755,28.4399151 C8.28052755,28.2972399 8.27377824,28.1546327 8.26027961,28.0187516 C8.05105096,25.722293 6.12749725,23.9219363 3.79223554,23.9219363 C2.48961846,23.9219363 1.31523829,24.4790488 0.491822314,25.3758641 C-0.554320937,26.5104034 0.221849862,28.3380042 1.72019697,28.433121 L1.72019697,28.433121 Z" id="Shape"></path>
                        <path d="M47.3522231,28.4195329 C48.7830771,28.2428875 49.485073,26.4764331 48.4658595,25.3690701 C47.642511,24.4722548 46.4680634,23.9151423 45.1655138,23.9151423 C42.8100041,23.9151423 40.8797011,25.7427431 40.6907204,28.06631 C40.6839036,28.1886709 40.6772218,28.3109639 40.6772218,28.433189 L47.1159972,28.433189 C47.1970565,28.433121 47.2712989,28.426327 47.3522231,28.4195329 L47.3522231,28.4195329 Z" id="Shape"></path>
                    </g>
                </g>
            </g>
        </g>
    </g>
</svg>