<?xml version="1.0" encoding="UTF-8" standalone="no"?>
<svg width="61px" height="48px" viewBox="0 0 61 48" version="1.1" xmlns="http://www.w3.org/2000/svg" xmlns:xlink="http://www.w3.org/1999/xlink">
    <!-- Generator: Sketch 3.7.2 (28276) - http://www.bohemiancoding.com/sketch -->
    <title>employee</title>
    <desc>Created with Sketch.</desc>
    <defs></defs>
    <g id="seats-available" stroke="none" stroke-width="1" fill="none" fill-rule="evenodd">
        <g id="1B.-Home-not-available" transform="translate(-278.000000, -401.000000)">
            <g id="employee" transform="translate(278.000000, 401.500000)">
                <g id="Group">
                    <path d="M60.1046967,45.0816327 L47.7250391,45.0816327 C48.5761742,44.0017117 48.9178219,42.614852 48.6605714,41.2579668 L46.1236399,27.8801122 C45.8044344,26.1971046 44.600908,24.8151607 42.9826771,24.2733418 L36.5130959,22.1073852 C36.3992133,22.0692577 36.2830626,22.0558291 36.1702544,22.0635026 L36.1702544,20.3370918 C37.4046986,18.9438776 38.0802348,17.1722653 38.0802348,15.2869898 L38.0802348,13.1607194 C39.1892172,12.7844796 39.9902153,11.7303367 39.9902153,10.4910714 L39.9902153,5.69515306 C39.9902153,2.55490561 37.4464795,0 34.3199609,0 L26.6800391,0 C25.4165871,0 24.3454462,0.843242347 23.9954423,1.99893878 C22.2923366,2.35851276 21.0097847,3.87917857 21.0097847,5.69515306 L21.0097847,10.4910714 C21.0097847,11.7302168 21.8107828,12.7843597 22.9197652,13.1607194 L22.9197652,15.0055893 C22.9197652,16.9873827 23.6435284,18.8178648 24.8297456,20.2162347 L24.8297456,22.0635026 C24.7169374,22.055949 24.6009061,22.0692577 24.4869041,22.1075051 L18.0173229,24.2734617 C16.399092,24.8152806 15.1955656,26.1972245 14.8763601,27.8802321 L12.3394286,41.2580867 C12.0820587,42.6149719 12.4238258,44.0018316 13.2749609,45.0817526 L0.895303327,45.0817526 C0.400857143,45.0817526 0,45.4843699 0,45.9809872 C0,46.4776046 0.400857143,46.8802219 0.895303327,46.8802219 L16.9713699,46.8802219 L17.130137,46.8802219 L19.0401174,46.8802219 L41.9598826,46.8802219 L43.869863,46.8802219 L44.0286301,46.8802219 L60.1046967,46.8802219 C60.5991429,46.8802219 61,46.4776046 61,45.9809872 C61,45.4843699 60.5991429,45.0816327 60.1046967,45.0816327 L60.1046967,45.0816327 Z M25.7250489,23.8596939 C26.2194951,23.8596939 26.6203523,23.4570765 26.6203523,22.9604592 L26.6203523,21.7711913 C27.69591,22.4484949 28.9406204,22.8569872 30.2674599,22.8970332 C30.3461272,22.8994311 30.4244364,22.9005102 30.5027456,22.9005102 C31.8891526,22.9005102 33.217544,22.5287066 34.3796477,21.8301811 L34.3796477,22.9604592 C34.3796477,23.4570765 34.7805049,23.8596939 35.2749511,23.8596939 C35.2874853,23.8596939 35.2996614,23.858375 35.3120763,23.8577755 C35.0789393,26.0755281 33.0100724,27.8163265 30.5,27.8163265 C27.9899276,27.8163265 25.9210607,26.0755281 25.6879237,23.8577755 C25.7003386,23.858375 25.7125147,23.8596939 25.7250489,23.8596939 L25.7250489,23.8596939 Z M22.8003914,10.4910714 L22.8003914,5.69515306 C22.8003914,4.60432143 23.6839961,3.71683673 24.7700587,3.71683673 C25.2645049,3.71683673 25.665362,3.31421939 25.665362,2.81760204 C25.665362,2.25564031 26.1205342,1.79846939 26.6800391,1.79846939 L34.3199609,1.79846939 C36.4591389,1.79846939 38.1996086,3.54646173 38.1996086,5.69515306 L38.1996086,10.4910714 C38.1996086,10.6639643 38.1561566,10.8267857 38.0802348,10.9697041 L38.0802348,9.53188776 C38.0802348,7.97825 36.8217965,6.71428571 35.2749511,6.71428571 L25.7250489,6.71428571 C24.1782035,6.71428571 22.9197652,7.97825 22.9197652,9.53188776 L22.9197652,10.9697041 C22.8438434,10.8267857 22.8003914,10.6639643 22.8003914,10.4910714 L22.8003914,10.4910714 Z M24.7103718,9.53188776 C24.7103718,8.96992602 25.165544,8.5127551 25.7250489,8.5127551 L35.2749511,8.5127551 C35.834456,8.5127551 36.2896282,8.96992602 36.2896282,9.53188776 L36.2896282,15.2869898 C36.2896282,16.8732398 35.6653033,18.3555383 34.5316106,19.4605179 C33.3983953,20.5650179 31.9012094,21.1468827 30.3211781,21.0994031 C27.2273679,21.0061224 24.7103718,18.2723291 24.7103718,15.0054694 L24.7103718,9.53188776 L24.7103718,9.53188776 Z M19.0401174,45.0816327 C19.0071703,45.0816327 18.9804305,45.0546556 18.9804305,45.0216837 L18.9804305,32.5522959 C18.9804305,32.519324 19.0071703,32.4923469 19.0401174,32.4923469 L41.9598826,32.4923469 C41.9928297,32.4923469 42.0195695,32.519324 42.0195695,32.5522959 L42.0195695,45.0216837 C42.0195695,45.0546556 41.9928297,45.0816327 41.9598826,45.0816327 L19.0401174,45.0816327 L19.0401174,45.0816327 Z M43.869863,45.0816327 L43.8071918,45.0816327 C43.8077886,45.0616097 43.8101761,45.0419464 43.8101761,45.0216837 L43.8101761,32.5522959 C43.8101761,31.5275281 42.9801703,30.6938776 41.9598826,30.6938776 L19.0401174,30.6938776 C18.0198297,30.6938776 17.1898239,31.5275281 17.1898239,32.5522959 L17.1898239,45.0216837 C17.1898239,45.0419464 17.1922114,45.0616097 17.1928082,45.0816327 L17.130137,45.0816327 L16.9713699,45.0816327 C16.0968376,45.0816327 15.2756654,44.693523 14.7181898,44.0168189 C14.1607143,43.3401148 13.9347397,42.4573061 14.0985205,41.5945204 L16.6354521,28.2166658 C16.8333738,27.1728342 17.5799374,26.3156837 18.5836321,25.9796097 L23.9256086,24.1910918 C24.3245558,27.2427347 27.1196928,29.6147959 30.5,29.6147959 C33.8803072,29.6147959 36.6754442,27.2427347 37.0745108,24.1910918 L42.4164873,25.9794898 C43.420182,26.3155638 44.1667456,27.1728342 44.3646673,28.2166658 L46.9015988,41.5945204 C47.0652603,42.4573061 46.8394051,43.3402347 46.2819295,44.0168189 C45.724454,44.693523 44.9031624,45.0816327 44.0287495,45.0816327 L43.869863,45.0816327 L43.869863,45.0816327 Z" id="Shape" fill="#31A5E0"></path>
                    <path d="M30.5,36.4489796 C28.9531546,36.4489796 27.6947162,37.7129439 27.6947162,39.2665816 C27.6947162,40.8202194 28.9531546,42.0841837 30.5,42.0841837 C32.0468454,42.0841837 33.3052838,40.8202194 33.3052838,39.2665816 C33.3052838,37.7129439 32.0468454,36.4489796 30.5,36.4489796 L30.5,36.4489796 Z M30.5,40.2857143 C29.9404951,40.2857143 29.4853229,39.8285434 29.4853229,39.2665816 C29.4853229,38.7046199 29.9404951,38.247449 30.5,38.247449 C31.0595049,38.247449 31.5146771,38.7046199 31.5146771,39.2665816 C31.5146771,39.8285434 31.0595049,40.2857143 30.5,40.2857143 L30.5,40.2857143 Z" id="Shape" fill="#2395CC"></path>
                </g>
            </g>
        </g>
    </g>
</svg>