<?xml version="1.0" encoding="UTF-8" standalone="no"?>
<svg width="30px" height="30px" viewBox="0 0 30 30" version="1.1" xmlns="http://www.w3.org/2000/svg" xmlns:xlink="http://www.w3.org/1999/xlink">
    <!-- Generator: Sketch 3.8.3 (29802) - http://www.bohemiancoding.com/sketch -->
    <title>error</title>
    <desc>Created with Sketch.</desc>
    <defs></defs>
    <g id="rework" stroke="none" stroke-width="1" fill="none" fill-rule="evenodd">
        <g id="Group-14" transform="translate(-13.000000, -12.000000)" fill="#FFFFFF">
            <g id="error" transform="translate(13.000000, 12.000000)">
                <g id="Capa_1">
                    <path d="M25.5998077,4.38634615 C19.7515385,-1.46192308 10.2351923,-1.4625 4.38634615,4.38634615 C-1.4625,10.2351923 -1.46192308,19.7509615 4.38634615,25.5998077 C10.2346154,31.4486538 19.7509615,31.4486538 25.5998077,25.5998077 C31.4480769,19.7509615 31.4480769,10.2346154 25.5998077,4.38634615 L25.5998077,4.38634615 Z M20.9082692,20.9082692 C20.4576923,21.3588462 19.7273077,21.3588462 19.2767308,20.9082692 L14.9930769,16.6246154 L10.5057692,21.1119231 C10.0551923,21.5625 9.32480769,21.5625 8.87423077,21.1119231 C8.42365385,20.6613462 8.42365385,19.9309615 8.87423077,19.4803846 L13.3615385,14.9930769 L9.07788462,10.7094231 C8.62730769,10.2588462 8.62730769,9.52788462 9.07788462,9.07788462 C9.52846154,8.62730769 10.2588462,8.62730769 10.7094231,9.07788462 L14.9930769,13.3615385 L19.0725,9.28211538 C19.5230769,8.83153846 20.2534615,8.83153846 20.7040385,9.28211538 C21.1546154,9.73269231 21.1546154,10.4630769 20.7040385,10.9136538 L16.6246154,14.9930769 L20.9082692,19.2767308 C21.3588462,19.7273077 21.3588462,20.4576923 20.9082692,20.9082692 L20.9082692,20.9082692 Z" id="Shape"></path>
                </g>
            </g>
        </g>
    </g>
</svg>