<?xml version="1.0" encoding="UTF-8" standalone="no"?>
<svg width="85px" height="38px" viewBox="0 0 85 38" version="1.1" xmlns="http://www.w3.org/2000/svg" xmlns:xlink="http://www.w3.org/1999/xlink">
    <!-- Generator: Sketch 3.7.2 (28276) - http://www.bohemiancoding.com/sketch -->
    <title>Group 3</title>
    <desc>Created with Sketch.</desc>
    <defs></defs>
    <g id="seats-available" stroke="none" stroke-width="1" fill="none" fill-rule="evenodd">
        <g id="1A.-Home-available" transform="translate(-13.000000, -16.000000)">
            <g id="Group-3" transform="translate(13.000000, 16.000000)">
                <g id="logo" transform="translate(2.000000, 0.000000)">
                    <g id="Layer_1">
                        <path d="M64.6788018,11.1166667 C64.6788018,14.835 67.4327189,17.5566667 70.7603687,17.5566667 C74.0880184,17.5566667 76.8419355,14.835 76.8419355,11.1166667 C76.8419355,8.12666667 74.0880184,5.405 70.7603687,5.405 C67.4327189,5.44333333 64.6788018,8.165 64.6788018,11.1166667 L64.6788018,11.1166667 Z M82.7322581,11.1166667 C82.7322581,18.0933333 77.721659,23 70.7986175,23 C63.875576,23 58.864977,18.0933333 58.864977,11.1166667 C58.864977,4.6 64.6023041,0 70.7986175,0 C76.9949309,0 82.7322581,4.56166667 82.7322581,11.1166667 L82.7322581,11.1166667 Z" id="Shape" fill="#00215B"></path>
                        <path d="M65.8262673,14.9116667 C64.7170507,16.56 62.881106,17.5566667 60.8539171,17.5566667 L60.5861751,17.5566667 C57.3732719,17.4033333 54.7723502,14.7583333 54.7723502,11.1166667 C54.7723502,8.24166667 57.335023,5.59666667 60.5096774,5.44333333 L60.8539171,5.44333333 C62.9193548,5.44333333 64.7170507,6.47833333 65.8262673,7.935 C66.9354839,6.47833333 68.7331797,5.44333333 70.7986175,5.44333333 L71.1428571,5.44333333 C69.8806452,3.48833333 68.0064516,1.955 65.8262673,0.996666667 C64.2963134,0.345 62.5751152,0 60.8539171,0 C54.6576037,0 48.9202765,4.56166667 48.9202765,11.1166667 C48.9202765,18.0933333 53.9308756,23 60.8539171,23 C62.6516129,23 64.3345622,22.655 65.8262673,22.0416667 C68.0447005,21.1216667 69.8423963,19.5883333 71.0663594,17.5566667 L70.7986175,17.5566667 C68.7331797,17.5566667 66.897235,16.56 65.8262673,14.9116667 L65.8262673,14.9116667 Z" id="Shape" fill="#3C5BA3"></path>
                        <polygon id="Shape" fill="#398FD1" points="39.5493088 22.54 34.2327189 9.81333333 34.19447 9.81333333 32.9705069 22.54 27.1949309 22.54 30.1400922 0.46 35.8774194 0.46 40.6585253 12.2666667 45.4013825 0.46 51.1387097 0.46 54.083871 22.54 48.3082949 22.54 47.1225806 9.81333333 47.0460829 9.81333333 41.7294931 22.54"></polygon>
                        <path d="M21.4576037,7.28333333 L21.4193548,7.28333333 L19.0479263,14.2983333 L23.8290323,14.2983333 L21.4576037,7.28333333 L21.4576037,7.28333333 Z M17.4414747,18.7066667 L15.9115207,22.54 L6.65529954,22.54 L9.94470046,22.195 L18.3211982,0.46 L24.6322581,0.46 L32.9705069,22.5783333 L26.8124424,22.5783333 L25.3589862,18.745 L17.4414747,18.745 L17.4414747,18.7066667 Z" id="Shape" fill="#54AB42"></path>
                        <path d="M5.77557604,17.6716667 L7.07603687,17.6716667 C10.5184332,17.6716667 13.4635945,15.7933333 13.4635945,11.5 C13.4635945,7.55166667 10.8626728,5.32833333 7.15253456,5.32833333 L5.81382488,5.32833333 L5.81382488,17.6716667 L5.77557604,17.6716667 Z M0,0.46 L8.18525346,0.46 C14.343318,0.46 19.4304147,5.29 19.4304147,11.5 C19.4304147,17.71 14.3050691,22.54 8.18525346,22.54 L0,22.54 L0,0.46 L0,0.46 Z" id="Shape" fill="#97C550"></path>
                    </g>
                </g>
                <path d="M1.83869565,34.255 C2.1886974,34.5550015 2.57619353,34.799999 3.00119565,34.99 C3.42619778,35.1800009 3.8436936,35.275 4.25369565,35.275 C4.71369795,35.275 5.05619453,35.1900008 5.28119565,35.02 C5.50619678,34.8499991 5.61869565,34.6200014 5.61869565,34.33 C5.61869565,34.1799992 5.58619598,34.0500005 5.52119565,33.94 C5.45619533,33.8299994 5.36119628,33.7325004 5.23619565,33.6475 C5.11119503,33.5624996 4.96119653,33.4825004 4.78619565,33.4075 C4.61119478,33.3324996 4.4186967,33.2500004 4.20869565,33.16 L2.93369565,32.62 C2.6836944,32.5199995 2.44119683,32.3900008 2.20619565,32.23 C1.97119448,32.0699992 1.76119658,31.8825011 1.57619565,31.6675 C1.39119473,31.4524989 1.2436962,31.2025014 1.13369565,30.9175 C1.0236951,30.6324986 0.968695652,30.3100018 0.968695652,29.95 C0.968695652,29.549998 1.0536948,29.1725018 1.22369565,28.8175 C1.3936965,28.4624982 1.6336941,28.1525013 1.94369565,27.8875 C2.2536972,27.6224987 2.62119353,27.4150007 3.04619565,27.265 C3.47119778,27.1149992 3.9386931,27.04 4.44869565,27.04 C5.0186985,27.04 5.58119288,27.1499989 6.13619565,27.37 C6.69119843,27.5900011 7.17869355,27.9099979 7.59869565,28.33 L6.47369565,29.725 C6.15369405,29.4749987 5.83369725,29.2825007 5.51369565,29.1475 C5.19369405,29.0124993 4.8386976,28.945 4.44869565,28.945 C4.06869375,28.945 3.76619678,29.0224992 3.54119565,29.1775 C3.31619453,29.3325008 3.20369565,29.5499986 3.20369565,29.83 C3.20369565,29.9800007 3.24119528,30.1074995 3.31619565,30.2125 C3.39119603,30.3175005 3.49619498,30.4124996 3.63119565,30.4975 C3.76619633,30.5825004 3.92369475,30.6624996 4.10369565,30.7375 C4.28369655,30.8125004 4.4786946,30.8949995 4.68869565,30.985 L5.94869565,31.495 C6.54869865,31.7350012 7.02119393,32.0649979 7.36619565,32.485 C7.71119738,32.9050021 7.88369565,33.4599965 7.88369565,34.15 C7.88369565,34.560002 7.80119648,34.9474982 7.63619565,35.3125 C7.47119483,35.6775018 7.23119723,35.9974986 6.91619565,36.2725 C6.60119408,36.5475014 6.21369795,36.7674992 5.75369565,36.9325 C5.29369335,37.0975008 4.77369855,37.18 4.19369565,37.18 C3.55369245,37.18 2.91619883,37.0625012 2.28119565,36.8275 C1.64619248,36.5924988 1.07869815,36.2400023 0.578695652,35.77 L1.83869565,34.255 Z M9.54869565,27.22 L15.6686957,27.22 L15.6686957,29.08 L11.7536957,29.08 L11.7536957,31.045 L15.0836957,31.045 L15.0836957,32.89 L11.7536957,32.89 L11.7536957,35.14 L15.8186957,35.14 L15.8186957,37 L9.54869565,37 L9.54869565,27.22 Z M21.9086957,32.95 L21.6836957,32.05 C21.543695,31.5599975 21.4086963,31.0400027 21.2786957,30.49 C21.148695,29.9399972 21.0186963,29.4100025 20.8886957,28.9 L20.8286957,28.9 C20.7086951,29.4200026 20.5861963,29.9524973 20.4611957,30.4975 C20.336195,31.0425027 20.2036964,31.5599975 20.0636957,32.05 L19.8236957,32.95 L21.9086957,32.95 Z M22.3586957,34.675 L19.3736957,34.675 L18.7736957,37 L16.5236957,37 L19.5836957,27.22 L22.2386957,27.22 L25.2986957,37 L22.9586957,37 L22.3586957,34.675 Z M27.6686957,29.08 L24.9836957,29.08 L24.9836957,27.22 L32.5736957,27.22 L32.5736957,29.08 L29.8886957,29.08 L29.8886957,37 L27.6686957,37 L27.6686957,29.08 Z M34.3586957,34.255 C34.7086974,34.5550015 35.0961935,34.799999 35.5211957,34.99 C35.9461978,35.1800009 36.3636936,35.275 36.7736957,35.275 C37.233698,35.275 37.5761945,35.1900008 37.8011957,35.02 C38.0261968,34.8499991 38.1386957,34.6200014 38.1386957,34.33 C38.1386957,34.1799992 38.106196,34.0500005 38.0411957,33.94 C37.9761953,33.8299994 37.8811963,33.7325004 37.7561957,33.6475 C37.631195,33.5624996 37.4811965,33.4825004 37.3061957,33.4075 C37.1311948,33.3324996 36.9386967,33.2500004 36.7286957,33.16 L35.4536957,32.62 C35.2036944,32.5199995 34.9611968,32.3900008 34.7261957,32.23 C34.4911945,32.0699992 34.2811966,31.8825011 34.0961957,31.6675 C33.9111947,31.4524989 33.7636962,31.2025014 33.6536957,30.9175 C33.5436951,30.6324986 33.4886957,30.3100018 33.4886957,29.95 C33.4886957,29.549998 33.5736948,29.1725018 33.7436957,28.8175 C33.9136965,28.4624982 34.1536941,28.1525013 34.4636957,27.8875 C34.7736972,27.6224987 35.1411935,27.4150007 35.5661957,27.265 C35.9911978,27.1149992 36.4586931,27.04 36.9686957,27.04 C37.5386985,27.04 38.1011929,27.1499989 38.6561957,27.37 C39.2111984,27.5900011 39.6986936,27.9099979 40.1186957,28.33 L38.9936957,29.725 C38.6736941,29.4749987 38.3536973,29.2825007 38.0336957,29.1475 C37.7136941,29.0124993 37.3586976,28.945 36.9686957,28.945 C36.5886938,28.945 36.2861968,29.0224992 36.0611957,29.1775 C35.8361945,29.3325008 35.7236957,29.5499986 35.7236957,29.83 C35.7236957,29.9800007 35.7611953,30.1074995 35.8361957,30.2125 C35.911196,30.3175005 36.016195,30.4124996 36.1511957,30.4975 C36.2861963,30.5825004 36.4436948,30.6624996 36.6236957,30.7375 C36.8036966,30.8125004 36.9986946,30.8949995 37.2086957,30.985 L38.4686957,31.495 C39.0686987,31.7350012 39.5411939,32.0649979 39.8861957,32.485 C40.2311974,32.9050021 40.4036957,33.4599965 40.4036957,34.15 C40.4036957,34.560002 40.3211965,34.9474982 40.1561957,35.3125 C39.9911948,35.6775018 39.7511972,35.9974986 39.4361957,36.2725 C39.1211941,36.5475014 38.733698,36.7674992 38.2736957,36.9325 C37.8136934,37.0975008 37.2936986,37.18 36.7136957,37.18 C36.0736925,37.18 35.4361988,37.0625012 34.8011957,36.8275 C34.1661925,36.5924988 33.5986982,36.2400023 33.0986957,35.77 L34.3586957,34.255 Z" id="SEATS" fill="#393939"></path>
            </g>
        </g>
    </g>
</svg>