<?xml version="1.0" encoding="UTF-8" standalone="no"?>
<svg width="85px" height="38px" viewBox="0 0 85 38" version="1.1" xmlns="http://www.w3.org/2000/svg" xmlns:xlink="http://www.w3.org/1999/xlink">
    <!-- Generator: Sketch 3.7.2 (28276) - http://www.bohemiancoding.com/sketch -->
    <title>Group 3</title>
    <desc>Created with Sketch.</desc>
    <defs></defs>
    <g id="seats-available" stroke="none" stroke-width="1" fill="none" fill-rule="evenodd">
        <g id="1A.-Home-available" transform="translate(-13.000000, -16.000000)">
            <g id="Group-3" transform="translate(12.000000, 16.000000)">
                <g id="logo" transform="translate(3.000000, 0.000000)">
                    <g id="Layer_1">
                        <path d="M64.6788018,11.1166667 C64.6788018,14.835 67.4327189,17.5566667 70.7603687,17.5566667 C74.0880184,17.5566667 76.8419355,14.835 76.8419355,11.1166667 C76.8419355,8.12666667 74.0880184,5.405 70.7603687,5.405 C67.4327189,5.44333333 64.6788018,8.165 64.6788018,11.1166667 L64.6788018,11.1166667 Z M82.7322581,11.1166667 C82.7322581,18.0933333 77.721659,23 70.7986175,23 C63.875576,23 58.864977,18.0933333 58.864977,11.1166667 C58.864977,4.6 64.6023041,0 70.7986175,0 C76.9949309,0 82.7322581,4.56166667 82.7322581,11.1166667 L82.7322581,11.1166667 Z" id="Shape" fill="#00215B"></path>
                        <path d="M65.8262673,14.9116667 C64.7170507,16.56 62.881106,17.5566667 60.8539171,17.5566667 L60.5861751,17.5566667 C57.3732719,17.4033333 54.7723502,14.7583333 54.7723502,11.1166667 C54.7723502,8.24166667 57.335023,5.59666667 60.5096774,5.44333333 L60.8539171,5.44333333 C62.9193548,5.44333333 64.7170507,6.47833333 65.8262673,7.935 C66.9354839,6.47833333 68.7331797,5.44333333 70.7986175,5.44333333 L71.1428571,5.44333333 C69.8806452,3.48833333 68.0064516,1.955 65.8262673,0.996666667 C64.2963134,0.345 62.5751152,0 60.8539171,0 C54.6576037,0 48.9202765,4.56166667 48.9202765,11.1166667 C48.9202765,18.0933333 53.9308756,23 60.8539171,23 C62.6516129,23 64.3345622,22.655 65.8262673,22.0416667 C68.0447005,21.1216667 69.8423963,19.5883333 71.0663594,17.5566667 L70.7986175,17.5566667 C68.7331797,17.5566667 66.897235,16.56 65.8262673,14.9116667 L65.8262673,14.9116667 Z" id="Shape" fill="#3C5BA3"></path>
                        <polygon id="Shape" fill="#398FD1" points="39.5493088 22.54 34.2327189 9.81333333 34.19447 9.81333333 32.9705069 22.54 27.1949309 22.54 30.1400922 0.46 35.8774194 0.46 40.6585253 12.2666667 45.4013825 0.46 51.1387097 0.46 54.083871 22.54 48.3082949 22.54 47.1225806 9.81333333 47.0460829 9.81333333 41.7294931 22.54"></polygon>
                        <path d="M21.4576037,7.28333333 L21.4193548,7.28333333 L19.0479263,14.2983333 L23.8290323,14.2983333 L21.4576037,7.28333333 L21.4576037,7.28333333 Z M17.4414747,18.7066667 L15.9115207,22.54 L6.65529954,22.54 L9.94470046,22.195 L18.3211982,0.46 L24.6322581,0.46 L32.9705069,22.5783333 L26.8124424,22.5783333 L25.3589862,18.745 L17.4414747,18.745 L17.4414747,18.7066667 Z" id="Shape" fill="#54AB42"></path>
                        <path d="M5.77557604,17.6716667 L7.07603687,17.6716667 C10.5184332,17.6716667 13.4635945,15.7933333 13.4635945,11.5 C13.4635945,7.55166667 10.8626728,5.32833333 7.15253456,5.32833333 L5.81382488,5.32833333 L5.81382488,17.6716667 L5.77557604,17.6716667 Z M0,0.46 L8.18525346,0.46 C14.343318,0.46 19.4304147,5.29 19.4304147,11.5 C19.4304147,17.71 14.3050691,22.54 8.18525346,22.54 L0,22.54 L0,0.46 L0,0.46 Z" id="Shape" fill="#97C550"></path>
                    </g>
                </g>
                <text id="SEATS" font-family="SourceSansPro-Bold, Source Sans Pro" font-size="15" font-weight="bold" fill="#393939">
                    <tspan x="1.05369565" y="37">SEATS</tspan>
                </text>
            </g>
        </g>
    </g>
</svg>