<?xml version="1.0" encoding="UTF-8" standalone="no"?>
<svg width="36px" height="36px" viewBox="0 0 36 36" version="1.1" xmlns="http://www.w3.org/2000/svg" xmlns:xlink="http://www.w3.org/1999/xlink">
    <!-- Generator: Sketch 3.8.3 (29802) - http://www.bohemiancoding.com/sketch -->
    <title>Bitmap</title>
    <desc>Created with Sketch.</desc>
    <defs>
        <circle id="path-1" cx="18" cy="18" r="18"></circle>
    </defs>
    <g id="rework" stroke="none" stroke-width="1" fill="none" fill-rule="evenodd">
        <g id="1B.-Home-not-available-Copy-6" transform="translate(-16.000000, -17.000000)">
            <g id="Bitmap" transform="translate(16.000000, 17.000000)">
                <mask id="mask-2" fill="white">
                    <use xlink:href="#path-1"></use>
                </mask>
                <use id="Mask" fill="#FAFAFA" xlink:href="#path-1"></use>
                <g id="man" mask="url(#mask-2)">
                    <g transform="translate(8.000000, 7.000000)" id="Capa_1">
                        <g>
                            <g id="Group">
                                <g transform="translate(0.000000, 3.980392)">
                                    <rect id="Rectangle-path" fill="#FDCC9B" x="7.95258741" y="17.7487108" width="4.11118881" height="4.68023039"></rect>
                                    <path d="M7.95272727,18.2998529 C7.95272727,18.2998529 9.68195804,19.4191961 12.0637762,19.1600441 L12.0637762,17.7485686 L7.95272727,17.7485686 L7.95272727,18.2998529 L7.95272727,18.2998529 Z" id="Shape" fill="#FCBC85"></path>
                                    <ellipse id="Oval" fill="#FCBC85" cx="2.02447552" cy="10.4916029" rx="2.00601399" ry="2.3262549"></ellipse>
                                    <ellipse id="Oval" fill="#FCBC85" cx="17.992028" cy="10.4916029" rx="2.00601399" ry="2.3262549"></ellipse>
                                    <path d="M17.9839161,6.04834804 C17.9839161,2.62194118 15.5172028,0.114720588 10.0083916,0.114720588 C4.4993007,0.114720588 2.03272727,2.62194118 2.03272727,6.04834804 C2.03272727,9.47489706 1.4572028,18.5008627 10.0083916,18.5008627 C18.5594406,18.5008627 17.9839161,9.47489706 17.9839161,6.04834804 L17.9839161,6.04834804 Z" id="Shape" fill="#FDCC9B"></path>
                                    <g transform="translate(4.615385, 6.397059)">
                                        <g transform="translate(0.559441, 2.558824)" id="Oval">
                                            <ellipse fill="#3B2519" cx="0.948671329" cy="0.97875" rx="0.863356643" ry="0.961122549"></ellipse>
                                            <ellipse fill="#FFFFFF" cx="0.572307692" cy="0.554269608" rx="0.258181818" ry="0.262421569"></ellipse>
                                        </g>
                                        <path d="M0.126993007,1.15559314 C0.535244755,1.36314216 1.19076923,0.450495098 2.69132867,1.24444118 C2.9648951,1.38915686 3.12811189,0.00653921569 1.51972028,0.00653921569 C0.126993007,0.00653921569 -0.11958042,1.03035294 0.126993007,1.15559314 L0.126993007,1.15559314 Z" id="Shape" fill="#4C2D19"></path>
                                        <g transform="translate(8.391608, 2.558824)" id="Oval">
                                            <ellipse fill="#3B2519" cx="0.992727273" cy="0.97875" rx="0.863356643" ry="0.961122549"></ellipse>
                                            <ellipse fill="#FFFFFF" cx="0.616223776" cy="0.554269608" rx="0.258181818" ry="0.262421569"></ellipse>
                                        </g>
                                        <path d="M10.6587413,1.15559314 C10.2504895,1.36314216 9.59482517,0.450495098 8.09440559,1.24444118 C7.82083916,1.38915686 7.65762238,0.00653921569 9.26601399,0.00653921569 C10.6587413,0.00653921569 10.9054545,1.03035294 10.6587413,1.15559314 L10.6587413,1.15559314 Z" id="Shape" fill="#4C2D19"></path>
                                    </g>
                                    <path d="M10.0083916,13.3151225 C9.15524476,13.3151225 8.6413986,12.6673137 8.6413986,12.9807696 C8.6413986,13.2940833 8.88811189,13.8897206 10.0083916,13.8897206 C11.1286713,13.8897206 11.3752448,13.2942255 11.3752448,12.9807696 C11.3752448,12.6673137 10.8612587,13.3151225 10.0083916,13.3151225 L10.0083916,13.3151225 Z" id="Shape" fill="#FCBC85"></path>
                                    <path d="M10.0083916,16.2625798 C9.71328671,16.2625798 9.53552448,15.9370357 9.53552448,16.0946436 C9.53552448,16.2522516 9.6206993,16.5515621 10.0083916,16.5515621 C10.3958042,16.5515621 10.4811189,16.2522516 10.4811189,16.0946436 C10.4811189,15.9370357 10.3033566,16.2625798 10.0083916,16.2625798 L10.0083916,16.2625798 Z" id="Shape" fill="#FCBC85"></path>
                                    <path d="M10.0083916,15.3981471 C8.65608392,15.3981471 7.84153846,14.8383333 7.84153846,14.980348 C7.84153846,15.1220784 8.23258741,15.6803284 10.0083916,15.6803284 C11.7840559,15.6803284 12.1751049,15.1220784 12.1751049,14.980348 C12.1751049,14.8384755 11.3605594,15.3981471 10.0083916,15.3981471 L10.0083916,15.3981471 Z" id="Shape" fill="#F7945E"></path>
                                </g>
                                <path d="M10.0083916,23.6094118 L10.0083916,28.8746176 L0.0184615385,28.8746176 C0.0184615385,26.7435441 5.28041958,23.6094118 10.0083916,23.6094118 L10.0083916,23.6094118 Z" id="Shape" fill="#F6A4B7"></path>
                                <path d="M10.0083916,23.6094118 L10.0083916,28.8746176 L19.9981818,28.8746176 C19.998042,26.7435441 14.7360839,23.6094118 10.0083916,23.6094118 L10.0083916,23.6094118 Z" id="Shape" fill="#F6A4B7"></path>
                                <path d="M7.95258741,23.7916569 C7.95258741,23.7916569 8.55384615,24.5496373 10.0081119,24.5496373 C11.4623776,24.5496373 12.0636364,23.7916569 12.0636364,23.7916569 C12.0636364,23.7916569 9.93118881,23.0025441 7.95258741,23.7916569 L7.95258741,23.7916569 Z" id="Shape" fill="#FDCC9B"></path>
                                <path d="M7.10993007,28.8746176 L6.68475524,24.0690049 C6.68475524,24.0690049 5.78181818,23.9423431 4.69664336,24.7436814 L3.79524476,28.8746176 L7.10993007,28.8746176 L7.10993007,28.8746176 Z" id="Shape" fill="#665853"></path>
                                <polygon id="Shape" fill="#665853" points="10.0082517 24.5496373 10.0082517 28.8746176 8.58993007 28.8746176 8.86741259 26.8845637 8.05034965 26.0068873"></polygon>
                                <path d="M12.9065734,28.8746176 L13.3317483,24.0690049 C13.3317483,24.0690049 14.2346853,23.9423431 15.3198601,24.7436814 L16.2211189,28.8746176 L12.9065734,28.8746176 L12.9065734,28.8746176 Z" id="Shape" fill="#665853"></path>
                                <polygon id="Shape" fill="#665853" points="10.0083916 24.5496373 10.0083916 28.8746176 11.4265734 28.8746176 11.1490909 26.8845637 11.9662937 26.0068873"></polygon>
                                <path d="M12.0637762,23.275201 L10.0082517,24.5497794 L12.1751049,26.7436863 L13.7848951,24.1973725 C13.7848951,24.1972304 12.7318881,23.1441324 12.0637762,23.275201 L12.0637762,23.275201 Z" id="Shape" fill="#F2788F"></path>
                                <path d="M7.95258741,23.275201 L10.0081119,24.5497794 L7.8413986,26.7436863 L6.23160839,24.1973725 C6.23174825,24.1972304 7.28461538,23.1441324 7.95258741,23.275201 L7.95258741,23.275201 Z" id="Shape" fill="#F2788F"></path>
                                <path d="M18.8267133,4.07407353 C18.6331469,3.68641176 18.0867133,3.63537745 17.7988811,3.46820098 C17.5109091,3.30102451 17.5109091,2.59066667 16.9766434,2.29825 C16.4422378,2.00569118 16.3598601,2.46542647 15.9858741,2.38183824 C15.6117483,2.29825 15.2497902,1.54609804 14.7562238,1.37892157 C14.2625175,1.21160294 13.8109091,1.54609804 13.440979,1.46236765 C13.071049,1.37892157 12.8243357,0.584833333 12.174965,0.626769608 C11.5255944,0.668563725 11.5086713,1.12815686 11.3751049,1.08636275 C11.2416783,1.04471078 10.8099301,0 10.0083916,0 C9.20671329,0 8.77496503,1.04471078 8.6413986,1.0865049 C8.50783217,1.12829902 8.49090909,0.668705882 7.84153846,0.626911765 C7.19216783,0.58497549 6.94559441,1.37906373 6.57552448,1.4625098 C6.20545455,1.5462402 5.75398601,1.2117451 5.26027972,1.37906373 C4.76671329,1.5462402 4.40475524,2.29839216 4.03062937,2.38198039 C3.65664336,2.46556863 3.57440559,2.00583333 3.03986014,2.29839216 C2.50559441,2.59095098 2.50559441,3.30130882 2.21776224,3.46834314 C1.92979021,3.63551961 1.3834965,3.68655392 1.18979021,4.07421569 C0.490909091,5.47417647 1.7413986,15.3469706 2.2806993,15.3469706 C2.81986014,15.3469706 2.50545455,10.321299 3.32769231,8.39919608 C4.14979021,6.47709314 7.31552448,8.14843137 10.0083916,8.14843137 C12.7011189,8.14843137 15.8667133,6.47695098 16.6890909,8.39919608 C17.5111888,10.321299 17.1967832,15.3469706 17.7359441,15.3469706 C18.2751049,15.3468284 19.5255944,5.47403431 18.8267133,4.07407353 L18.8267133,4.07407353 Z" id="Shape" fill="#4C2D19"></path>
                            </g>
                        </g>
                    </g>
                </g>
            </g>
        </g>
    </g>
</svg>