<?xml version="1.0" encoding="UTF-8" standalone="no"?>
<svg width="30px" height="27px" viewBox="0 0 30 27" version="1.1" xmlns="http://www.w3.org/2000/svg" xmlns:xlink="http://www.w3.org/1999/xlink">
    <!-- Generator: Sketch 3.8.3 (29802) - http://www.bohemiancoding.com/sketch -->
    <title>warning</title>
    <desc>Created with Sketch.</desc>
    <defs></defs>
    <g id="rework" stroke="none" stroke-width="1" fill="none" fill-rule="evenodd">
        <g id="Group-13" transform="translate(-16.000000, -13.000000)" fill="#FFFFFF">
            <g id="warning" transform="translate(16.000000, 13.000000)">
                <g id="Capa_1">
                    <path d="M29.7009202,23.5590798 L16.6825153,1.00693252 C15.9279141,-0.299815951 14.0383436,-0.299815951 13.2837423,1.00693252 L0.265337423,23.5590798 C-0.489263804,24.8658282 0.455521472,26.503865 1.96472393,26.503865 L28.0015337,26.503865 C29.5107362,26.503865 30.4555215,24.8658282 29.7009202,23.5590798 L29.7009202,23.5590798 Z M15.0015337,7.95171779 C15.8358896,7.95171779 16.5107362,8.64496933 16.4861963,9.47932515 L16.2407975,18.0437423 C16.2223926,18.718589 15.6702454,19.2523313 14.9953988,19.2523313 C14.3205521,19.2523313 13.7684049,18.712454 13.75,18.0437423 L13.5107362,9.47932515 C13.4923313,8.64496933 14.1610429,7.95171779 15.0015337,7.95171779 L15.0015337,7.95171779 Z M14.9831288,23.4425153 C14.1303681,23.4425153 13.4371166,22.7492638 13.4371166,21.8965031 C13.4371166,21.0437423 14.1303681,20.3504908 14.9831288,20.3504908 C15.8358896,20.3504908 16.5291411,21.0437423 16.5291411,21.8965031 C16.5291411,22.7492638 15.8358896,23.4425153 14.9831288,23.4425153 L14.9831288,23.4425153 Z" id="Shape"></path>
                </g>
            </g>
        </g>
    </g>
</svg>