<?xml version="1.0" encoding="UTF-8" standalone="no"?>
<svg width="36px" height="36px" viewBox="0 0 36 36" version="1.1" xmlns="http://www.w3.org/2000/svg" xmlns:xlink="http://www.w3.org/1999/xlink">
    <!-- Generator: Sketch 3.8.3 (29802) - http://www.bohemiancoding.com/sketch -->
    <title>Bitmap</title>
    <desc>Created with Sketch.</desc>
    <defs>
        <circle id="path-1" cx="18" cy="18" r="18"></circle>
    </defs>
    <g id="rework" stroke="none" stroke-width="1" fill="none" fill-rule="evenodd">
        <g id="1B.-Home-not-available-Copy-13" transform="translate(-16.000000, -17.000000)">
            <g id="Bitmap" transform="translate(16.000000, 17.000000)">
                <mask id="mask-2" fill="white">
                    <use xlink:href="#path-1"></use>
                </mask>
                <use id="Mask" fill="#FAFAFA" xlink:href="#path-1"></use>
                <g id="girl" mask="url(#mask-2)">
                    <g transform="translate(7.000000, 6.000000)" id="Capa_1">
                        <g>
                            <g id="Group">
                                <path d="M10.6108847,9.72632353 L10.6108847,29.0491176 L19.3859393,29.0491176 C19.3859393,29.0491176 21.0531415,20.3189706 21.0122223,15.0619118 C20.9713031,9.80485294 10.6108847,9.72632353 10.6108847,9.72632353 L10.6108847,9.72632353 Z" id="Shape" fill="#543C2A"></path>
                                <path d="M10.6108847,9.72632353 L10.6108847,29.0491176 L1.83612122,29.0491176 C1.83612122,29.0491176 0.168919074,20.3189706 0.209838264,15.0619118 C0.250611834,9.80485294 10.6108847,9.72632353 10.6108847,9.72632353 L10.6108847,9.72632353 Z" id="Shape" fill="#543C2A"></path>
                                <g transform="translate(0.145620, 4.264706)">
                                    <g>
                                        <rect id="Rectangle-path" fill="#FDCC9B" x="8.32508921" y="18.3044118" width="4.28049672" height="4.84161765"></rect>
                                        <path d="M8.32508921,18.8747059 C8.32508921,18.8747059 10.1256792,20.0326471 12.6055859,19.7645588 L12.6055859,18.3044118 L8.32508921,18.3044118 L8.32508921,18.8747059 L8.32508921,18.8747059 Z" id="Shape" fill="#FCBC85"></path>
                                        <ellipse id="Oval" fill="#FCBC85" cx="2.15284448" cy="10.7970588" rx="2.08862611" ry="2.40647059"></ellipse>
                                        <ellipse id="Oval" fill="#FCBC85" cx="18.7779763" cy="10.7970588" rx="2.08862611" ry="2.40647059"></ellipse>
                                        <path d="M18.7695303,6.20073529 C18.7695303,2.65602941 16.2012323,0.0623529412 10.4654104,0.0623529412 C4.72958847,0.0623529412 2.16143605,2.65602941 2.16143605,6.20073529 C2.16143605,9.74544118 1.5622102,19.0826471 10.4654104,19.0826471 C19.3687562,19.0826471 18.7695303,9.74544118 18.7695303,6.20073529 L18.7695303,6.20073529 Z" id="Shape" fill="#FDCC9B"></path>
                                        <g transform="translate(4.805456, 7.058824)">
                                            <g transform="translate(0.582480, 2.058824)" id="Oval">
                                                <ellipse fill="#3B2519" cx="1.03273627" cy="1.10323529" rx="0.898911592" ry="0.994264706"></ellipse>
                                                <ellipse fill="#FFFFFF" cx="0.645868347" cy="0.670571895" rx="0.273809524" ry="0.277777778"></ellipse>
                                            </g>
                                            <path d="M0.177219408,1.01838235 C0.602283872,1.18264706 1.28465869,0.459852941 2.84716012,1.08867647 C3.13199263,1.20338235 3.30193105,0.108088235 1.62715667,0.108088235 C0.177219408,0.108088235 -0.0796540808,0.919117647 0.177219408,1.01838235 L0.177219408,1.01838235 Z" id="Shape" fill="#684B37"></path>
                                            <g transform="translate(8.882813, 2.058824)" id="Oval">
                                                <ellipse fill="#3B2519" cx="0.932841027" cy="1.10323529" rx="0.898911592" ry="0.994264706"></ellipse>
                                                <ellipse fill="#FFFFFF" cx="0.545973102" cy="0.670571895" rx="0.273809524" ry="0.277777778"></ellipse>
                                            </g>
                                            <path d="M11.1426885,1.01838235 C10.717624,1.18264706 10.0351036,0.459852941 8.47274778,1.08867647 C8.18791528,1.20338235 8.01797686,0.108088235 9.69260562,0.108088235 C11.1426885,0.108088235 11.3994164,0.919117647 11.1426885,1.01838235 L11.1426885,1.01838235 Z" id="Shape" fill="#684B37"></path>
                                        </g>
                                        <path d="M10.4652648,13.7180882 C9.57712904,13.7180882 9.04212156,13.0479412 9.04212156,13.3722059 C9.04212156,13.6963235 9.29899505,14.3125 10.4652648,14.3125 C11.6318257,14.3125 11.8885536,13.6964706 11.8885536,13.3722059 C11.8886992,13.0479412 11.3535461,13.7180882 10.4652648,13.7180882 L10.4652648,13.7180882 Z" id="Shape" fill="#FCBC85"></path>
                                        <path d="M10.4652648,16.7832996 C10.1581524,16.7832996 9.97306953,16.4216855 9.97306953,16.5964082 C9.97306953,16.7715902 10.0618977,17.1042752 10.4652648,17.1042752 C10.8687775,17.1042752 10.9576056,16.7715902 10.9576056,16.5964082 C10.9576056,16.4216855 10.7726684,16.7832996 10.4652648,16.7832996 L10.4652648,16.7832996 Z" id="Shape" fill="#FCBC85"></path>
                                        <path d="M10.4652648,15.8729412 C9.05741165,15.8729412 8.2093214,15.2939706 8.2093214,15.4407353 C8.2093214,15.5875 8.616329,16.1648529 10.4652648,16.1648529 C12.3142005,16.1648529 12.7213537,15.5873529 12.7213537,15.4407353 C12.7213537,15.2941176 11.8731179,15.8729412 10.4652648,15.8729412 L10.4652648,15.8729412 Z" id="Shape" fill="#F7945E"></path>
                                    </g>
                                    <ellipse id="Oval" fill="#F9AA8D" cx="5.26474157" cy="13.3982353" rx="1.21985783" ry="1.23191176"></ellipse>
                                    <ellipse id="Oval" fill="#F9AA8D" cx="15.8159221" cy="13.3982353" rx="1.21985783" ry="1.23191176"></ellipse>
                                </g>
                                <path d="M10.6108847,24.5145588 L10.6108847,29.9611765 L1.23704098,29.9611765 C1.23704098,27.7566176 5.68849545,24.5145588 10.6108847,24.5145588 L10.6108847,24.5145588 Z" id="Shape" fill="#F5A860"></path>
                                <path d="M10.6108847,24.5145588 L10.6108847,29.9611765 L19.9848739,29.9611765 C19.9848739,27.7566176 15.5335651,24.5145588 10.6108847,24.5145588 L10.6108847,24.5145588 Z" id="Shape" fill="#F5A860"></path>
                                <path d="M8.82456544,24.6545588 C8.79704328,24.6585294 8.7693755,24.6641176 8.74170772,24.6683824 C8.16461609,24.7616176 7.60164959,24.8932353 7.06081731,25.0585294 L10.6110303,29.9611765 L10.6110303,27.2379412 L9.00950271,24.6325 C8.94819673,24.6411765 8.8857258,24.6451471 8.82456544,24.6545588 L8.82456544,24.6545588 Z" id="Shape" fill="#F18B45"></path>
                                <path d="M12.3973495,24.6545588 C12.4250173,24.6585294 12.452685,24.6641176 12.4803528,24.6683824 C13.0574445,24.7616176 13.620411,24.8932353 14.1612432,25.0585294 L10.6108847,29.9611765 L10.6108847,27.2379412 L12.2124122,24.6326471 C12.2737182,24.6411765 12.3363348,24.6451471 12.3973495,24.6545588 L12.3973495,24.6545588 Z" id="Shape" fill="#F18B45"></path>
                                <path d="M10.6108847,0 C0.937209624,0 -0.196441234,6.91044118 0.209838264,15.0617647 C0.616117762,23.2132353 7.46520375,27.2377941 7.46520375,27.2377941 C7.46520375,27.2377941 -0.209692644,16.1455882 6.17442903,6.41926471 C6.17442903,6.41926471 4.97568608,8.50117647 5.04063255,10.245 C5.04063255,10.245 6.5445948,9.72632353 10.6110303,9.72632353 C14.6776114,9.72632353 16.181428,10.245 16.181428,10.245 C16.2465201,8.50117647 15.0477771,6.41926471 15.0477771,6.41926471 C21.4318988,16.1454412 13.7568568,27.2377941 13.7568568,27.2377941 C13.7568568,27.2377941 20.6060884,23.2132353 21.0123679,15.0617647 C21.4185018,6.91044118 20.2848509,0 10.6108847,0 L10.6108847,0 Z" id="Shape" fill="#684B37"></path>
                                <path d="M8.47070911,24.7030882 L10.6108847,28.2925 L12.7510602,24.7029412 C12.7512058,24.7029412 10.5307937,23.8864706 8.47070911,24.7030882 L8.47070911,24.7030882 Z" id="Shape" fill="#FDCC9B"></path>
                            </g>
                        </g>
                    </g>
                </g>
            </g>
        </g>
    </g>
</svg>